<mxfile host="65bd71144e" pages="2">
    <diagram id="F4e9oyDER8BJtj5jijxu" name="HDMI">
        <mxGraphModel dx="1532" dy="792" grid="0" gridSize="10" guides="1" tooltips="1" connect="1" arrows="1" fold="1" page="0" pageScale="1" pageWidth="850" pageHeight="1100" background="none" math="0" shadow="0">
            <root>
                <mxCell id="0"/>
                <mxCell id="1" parent="0"/>
                <mxCell id="v23qxcmXpAjt8tN34ADX-1" value="&lt;div&gt;HDMI_TX&lt;/div&gt;&lt;div&gt;&lt;br&gt;&lt;/div&gt;&lt;div style=&quot;font-size: 16px;&quot;&gt;1080p @ 30Hz&lt;br&gt;&lt;/div&gt;" style="rounded=0;whiteSpace=wrap;html=1;fillColor=#dae8fc;strokeColor=#6c8ebf;fontSize=18;" parent="1" vertex="1">
                    <mxGeometry x="240" y="240" width="240" height="160" as="geometry"/>
                </mxCell>
                <mxCell id="v23qxcmXpAjt8tN34ADX-2" value="" style="endArrow=none;html=1;rounded=0;strokeWidth=2;" parent="1" edge="1">
                    <mxGeometry width="50" height="50" relative="1" as="geometry">
                        <mxPoint x="200" y="280" as="sourcePoint"/>
                        <mxPoint x="240" y="280" as="targetPoint"/>
                    </mxGeometry>
                </mxCell>
                <mxCell id="v23qxcmXpAjt8tN34ADX-10" value="pxl_clk" style="edgeLabel;html=1;align=center;verticalAlign=middle;resizable=0;points=[];fontSize=14;" parent="v23qxcmXpAjt8tN34ADX-2" vertex="1" connectable="0">
                    <mxGeometry x="-0.4643" relative="1" as="geometry">
                        <mxPoint x="-1" y="-12" as="offset"/>
                    </mxGeometry>
                </mxCell>
                <mxCell id="v23qxcmXpAjt8tN34ADX-3" value="" style="endArrow=none;html=1;rounded=0;strokeWidth=2;" parent="1" edge="1">
                    <mxGeometry width="50" height="50" relative="1" as="geometry">
                        <mxPoint x="200" y="360" as="sourcePoint"/>
                        <mxPoint x="240" y="360" as="targetPoint"/>
                    </mxGeometry>
                </mxCell>
                <mxCell id="v23qxcmXpAjt8tN34ADX-4" value="" style="endArrow=none;html=1;rounded=0;strokeWidth=2;" parent="1" edge="1">
                    <mxGeometry width="50" height="50" relative="1" as="geometry">
                        <mxPoint x="480" y="270" as="sourcePoint"/>
                        <mxPoint x="520" y="270" as="targetPoint"/>
                    </mxGeometry>
                </mxCell>
                <mxCell id="v23qxcmXpAjt8tN34ADX-16" value="de" style="edgeLabel;html=1;align=center;verticalAlign=middle;resizable=0;points=[];fontSize=14;" parent="v23qxcmXpAjt8tN34ADX-4" vertex="1" connectable="0">
                    <mxGeometry x="0.22" y="-1" relative="1" as="geometry">
                        <mxPoint x="-14" y="-11" as="offset"/>
                    </mxGeometry>
                </mxCell>
                <mxCell id="v23qxcmXpAjt8tN34ADX-5" value="" style="endArrow=none;html=1;rounded=0;strokeWidth=2;" parent="1" edge="1">
                    <mxGeometry width="50" height="50" relative="1" as="geometry">
                        <mxPoint x="480" y="290" as="sourcePoint"/>
                        <mxPoint x="520" y="290" as="targetPoint"/>
                    </mxGeometry>
                </mxCell>
                <mxCell id="v23qxcmXpAjt8tN34ADX-18" value="vs" style="edgeLabel;html=1;align=center;verticalAlign=middle;resizable=0;points=[];fontSize=14;" parent="v23qxcmXpAjt8tN34ADX-5" vertex="1" connectable="0">
                    <mxGeometry x="0.42" y="1" relative="1" as="geometry">
                        <mxPoint x="-18" y="-10" as="offset"/>
                    </mxGeometry>
                </mxCell>
                <mxCell id="v23qxcmXpAjt8tN34ADX-6" value="" style="endArrow=none;html=1;rounded=0;strokeWidth=2;" parent="1" edge="1">
                    <mxGeometry width="50" height="50" relative="1" as="geometry">
                        <mxPoint x="480" y="310" as="sourcePoint"/>
                        <mxPoint x="520" y="310" as="targetPoint"/>
                    </mxGeometry>
                </mxCell>
                <mxCell id="v23qxcmXpAjt8tN34ADX-19" value="hs" style="edgeLabel;html=1;align=center;verticalAlign=middle;resizable=0;points=[];fontSize=14;" parent="v23qxcmXpAjt8tN34ADX-6" vertex="1" connectable="0">
                    <mxGeometry x="0.54" y="1" relative="1" as="geometry">
                        <mxPoint x="-21" y="-9" as="offset"/>
                    </mxGeometry>
                </mxCell>
                <mxCell id="v23qxcmXpAjt8tN34ADX-7" value="" style="endArrow=none;html=1;rounded=0;strokeWidth=2;" parent="1" edge="1">
                    <mxGeometry width="50" height="50" relative="1" as="geometry">
                        <mxPoint x="480" y="330" as="sourcePoint"/>
                        <mxPoint x="520" y="330" as="targetPoint"/>
                    </mxGeometry>
                </mxCell>
                <mxCell id="v23qxcmXpAjt8tN34ADX-20" value="r" style="edgeLabel;html=1;align=center;verticalAlign=middle;resizable=0;points=[];fontSize=14;" parent="v23qxcmXpAjt8tN34ADX-7" vertex="1" connectable="0">
                    <mxGeometry x="0.56" relative="1" as="geometry">
                        <mxPoint x="-21" y="-10" as="offset"/>
                    </mxGeometry>
                </mxCell>
                <mxCell id="v23qxcmXpAjt8tN34ADX-8" value="" style="endArrow=none;html=1;rounded=0;strokeWidth=2;" parent="1" edge="1">
                    <mxGeometry width="50" height="50" relative="1" as="geometry">
                        <mxPoint x="480" y="350" as="sourcePoint"/>
                        <mxPoint x="520" y="350" as="targetPoint"/>
                    </mxGeometry>
                </mxCell>
                <mxCell id="v23qxcmXpAjt8tN34ADX-21" value="g" style="edgeLabel;html=1;align=center;verticalAlign=middle;resizable=0;points=[];fontSize=14;" parent="v23qxcmXpAjt8tN34ADX-8" vertex="1" connectable="0">
                    <mxGeometry x="0.52" y="-1" relative="1" as="geometry">
                        <mxPoint x="-20" y="-11" as="offset"/>
                    </mxGeometry>
                </mxCell>
                <mxCell id="v23qxcmXpAjt8tN34ADX-9" value="" style="endArrow=none;html=1;rounded=0;strokeWidth=2;" parent="1" edge="1">
                    <mxGeometry width="50" height="50" relative="1" as="geometry">
                        <mxPoint x="480" y="370" as="sourcePoint"/>
                        <mxPoint x="520" y="370" as="targetPoint"/>
                    </mxGeometry>
                </mxCell>
                <mxCell id="v23qxcmXpAjt8tN34ADX-23" value="b" style="edgeLabel;html=1;align=center;verticalAlign=middle;resizable=0;points=[];fontSize=14;" parent="v23qxcmXpAjt8tN34ADX-9" vertex="1" connectable="0">
                    <mxGeometry x="0.36" y="-1" relative="1" as="geometry">
                        <mxPoint x="-17" y="-11" as="offset"/>
                    </mxGeometry>
                </mxCell>
                <mxCell id="v23qxcmXpAjt8tN34ADX-13" value="" style="endArrow=none;html=1;rounded=0;entryX=0;entryY=0.685;entryDx=0;entryDy=0;entryPerimeter=0;strokeWidth=2;" parent="1" target="v23qxcmXpAjt8tN34ADX-1" edge="1">
                    <mxGeometry width="50" height="50" relative="1" as="geometry">
                        <mxPoint x="230" y="360" as="sourcePoint"/>
                        <mxPoint x="250" y="370" as="targetPoint"/>
                    </mxGeometry>
                </mxCell>
                <mxCell id="v23qxcmXpAjt8tN34ADX-14" value="&lt;div&gt;/rst&lt;/div&gt;" style="edgeLabel;html=1;align=center;verticalAlign=middle;resizable=0;points=[];fontSize=14;" parent="v23qxcmXpAjt8tN34ADX-13" vertex="1" connectable="0">
                    <mxGeometry x="-0.55" y="1" relative="1" as="geometry">
                        <mxPoint x="-21" y="-7" as="offset"/>
                    </mxGeometry>
                </mxCell>
                <mxCell id="v23qxcmXpAjt8tN34ADX-15" value="" style="triangle;whiteSpace=wrap;html=1;fontSize=14;fillColor=#dae8fc;strokeColor=#6c8ebf;" parent="1" vertex="1">
                    <mxGeometry x="240" y="275" width="10" height="10" as="geometry"/>
                </mxCell>
                <mxCell id="v23qxcmXpAjt8tN34ADX-24" value="" style="endArrow=none;html=1;rounded=0;fontSize=14;" parent="1" edge="1">
                    <mxGeometry width="50" height="50" relative="1" as="geometry">
                        <mxPoint x="505" y="335" as="sourcePoint"/>
                        <mxPoint x="515" y="325" as="targetPoint"/>
                    </mxGeometry>
                </mxCell>
                <mxCell id="v23qxcmXpAjt8tN34ADX-27" value="" style="endArrow=none;html=1;rounded=0;fontSize=14;" parent="1" edge="1">
                    <mxGeometry width="50" height="50" relative="1" as="geometry">
                        <mxPoint x="505" y="355" as="sourcePoint"/>
                        <mxPoint x="515" y="345" as="targetPoint"/>
                    </mxGeometry>
                </mxCell>
                <mxCell id="v23qxcmXpAjt8tN34ADX-28" value="" style="endArrow=none;html=1;rounded=0;fontSize=14;" parent="1" edge="1">
                    <mxGeometry width="50" height="50" relative="1" as="geometry">
                        <mxPoint x="505" y="375" as="sourcePoint"/>
                        <mxPoint x="515" y="365" as="targetPoint"/>
                    </mxGeometry>
                </mxCell>
                <mxCell id="v23qxcmXpAjt8tN34ADX-31" value="8" style="edgeLabel;html=1;align=center;verticalAlign=middle;resizable=0;points=[];fontSize=11;" parent="v23qxcmXpAjt8tN34ADX-28" vertex="1" connectable="0">
                    <mxGeometry x="-0.4423" relative="1" as="geometry">
                        <mxPoint x="2" y="8" as="offset"/>
                    </mxGeometry>
                </mxCell>
                <mxCell id="W9ylPbHtFCDZoYpTV8xz-2" value="" style="endArrow=none;html=1;rounded=0;fontSize=12;startSize=8;endSize=8;curved=1;strokeWidth=2;exitX=0.998;exitY=0.514;exitDx=0;exitDy=0;exitPerimeter=0;" parent="1" source="W9ylPbHtFCDZoYpTV8xz-1" edge="1">
                    <mxGeometry width="50" height="50" relative="1" as="geometry">
                        <mxPoint x="120" y="280" as="sourcePoint"/>
                        <mxPoint x="200" y="280" as="targetPoint"/>
                    </mxGeometry>
                </mxCell>
                <mxCell id="W9ylPbHtFCDZoYpTV8xz-3" value="" style="endArrow=none;html=1;rounded=0;strokeWidth=2;fontSize=12;startSize=8;endSize=8;curved=1;" parent="1" edge="1">
                    <mxGeometry width="50" height="50" relative="1" as="geometry">
                        <mxPoint x="-80" y="280" as="sourcePoint"/>
                        <mxPoint x="-40" y="280" as="targetPoint"/>
                    </mxGeometry>
                </mxCell>
                <mxCell id="W9ylPbHtFCDZoYpTV8xz-4" value="CLK" style="edgeLabel;html=1;align=center;verticalAlign=middle;resizable=0;points=[];fontSize=16;" parent="W9ylPbHtFCDZoYpTV8xz-3" vertex="1" connectable="0">
                    <mxGeometry x="-0.52" y="-1" relative="1" as="geometry">
                        <mxPoint x="10" y="-13" as="offset"/>
                    </mxGeometry>
                </mxCell>
                <mxCell id="W9ylPbHtFCDZoYpTV8xz-1" value="&lt;div style=&quot;font-size: 14px;&quot;&gt;PLL&lt;/div&gt;&lt;div style=&quot;font-size: 14px;&quot;&gt;50MHz -&amp;gt; 74.25 MHz&lt;br style=&quot;font-size: 14px;&quot;&gt;&lt;/div&gt;" style="rounded=0;whiteSpace=wrap;html=1;fontSize=14;fillColor=#d5e8d4;strokeColor=#82b366;" parent="1" vertex="1">
                    <mxGeometry x="-40" y="239" width="160" height="80" as="geometry"/>
                </mxCell>
                <mxCell id="W9ylPbHtFCDZoYpTV8xz-5" value="" style="triangle;whiteSpace=wrap;html=1;fontSize=14;fillColor=#d5e8d4;strokeColor=#82b366;" parent="1" vertex="1">
                    <mxGeometry x="-40" y="275" width="10" height="10" as="geometry"/>
                </mxCell>
            </root>
        </mxGraphModel>
    </diagram>
    <diagram id="y-ej98h8Z0JdLUBR6sK3" name="Convolution">
        <mxGraphModel dx="1742" dy="1618" grid="0" gridSize="10" guides="1" tooltips="1" connect="1" arrows="1" fold="1" page="0" pageScale="1" pageWidth="850" pageHeight="1100" math="0" shadow="0">
            <root>
                <mxCell id="0"/>
                <mxCell id="1" parent="0"/>
                <mxCell id="wd_HzJ2n6WR0b6MLlq9--158" value="" style="endArrow=none;html=1;rounded=0;strokeWidth=3;fontSize=20;fillColor=#dae8fc;strokeColor=#6c8ebf;movable=0;resizable=0;rotatable=0;deletable=0;editable=0;connectable=0;" parent="1" edge="1">
                    <mxGeometry width="50" height="50" relative="1" as="geometry">
                        <mxPoint x="719" y="120" as="sourcePoint"/>
                        <mxPoint x="1100" y="120" as="targetPoint"/>
                    </mxGeometry>
                </mxCell>
                <mxCell id="wd_HzJ2n6WR0b6MLlq9--12" value="" style="group;fillColor=#dae8fc;strokeColor=#6c8ebf;movable=0;resizable=0;rotatable=0;deletable=0;editable=0;connectable=0;fontSize=15;container=0;" parent="1" vertex="1" connectable="0">
                    <mxGeometry x="1040" y="-80" width="120" height="120" as="geometry"/>
                </mxCell>
                <mxCell id="wd_HzJ2n6WR0b6MLlq9--36" value="" style="endArrow=none;html=1;rounded=0;fillColor=#f8cecc;strokeColor=#b85450;strokeWidth=3;movable=0;resizable=0;rotatable=0;deletable=0;editable=0;connectable=0;" parent="1" edge="1">
                    <mxGeometry width="50" height="50" relative="1" as="geometry">
                        <mxPoint x="770" y="150" as="sourcePoint"/>
                        <mxPoint x="820" y="100" as="targetPoint"/>
                    </mxGeometry>
                </mxCell>
                <mxCell id="wd_HzJ2n6WR0b6MLlq9--37" value="" style="endArrow=none;html=1;rounded=0;fillColor=#dae8fc;strokeColor=#6c8ebf;strokeWidth=3;movable=0;resizable=0;rotatable=0;deletable=0;editable=0;connectable=0;" parent="1" edge="1">
                    <mxGeometry width="50" height="50" relative="1" as="geometry">
                        <mxPoint x="750" y="150" as="sourcePoint"/>
                        <mxPoint x="720" y="120" as="targetPoint"/>
                    </mxGeometry>
                </mxCell>
                <mxCell id="wd_HzJ2n6WR0b6MLlq9--160" value="k0" style="edgeLabel;html=1;align=center;verticalAlign=middle;resizable=0;points=[];fontSize=15;container=0;movable=0;rotatable=0;deletable=0;editable=0;connectable=0;" parent="wd_HzJ2n6WR0b6MLlq9--37" vertex="1" connectable="0">
                    <mxGeometry x="0.0593" y="1" relative="1" as="geometry">
                        <mxPoint x="-13" y="5" as="offset"/>
                    </mxGeometry>
                </mxCell>
                <mxCell id="wd_HzJ2n6WR0b6MLlq9--32" value="" style="verticalLabelPosition=bottom;shadow=0;dashed=0;align=center;html=1;verticalAlign=top;shape=mxgraph.electrical.abstract.multiplier;strokeWidth=2;container=0;movable=0;resizable=0;rotatable=0;deletable=0;editable=0;connectable=0;" parent="1" vertex="1">
                    <mxGeometry x="740" y="140" width="40" height="40" as="geometry"/>
                </mxCell>
                <mxCell id="wd_HzJ2n6WR0b6MLlq9--185" style="edgeStyle=orthogonalEdgeStyle;rounded=0;orthogonalLoop=1;jettySize=auto;html=1;strokeWidth=3;fontSize=15;endArrow=none;endFill=0;fillColor=#f8cecc;strokeColor=#b85450;entryX=0;entryY=0.5;entryDx=0;entryDy=0;movable=0;resizable=0;rotatable=0;deletable=0;editable=0;connectable=0;" parent="1" target="wd_HzJ2n6WR0b6MLlq9--165" edge="1">
                    <mxGeometry relative="1" as="geometry">
                        <mxPoint x="868" y="100.31034482758628" as="targetPoint"/>
                        <mxPoint x="819" y="100" as="sourcePoint"/>
                        <Array as="points"/>
                    </mxGeometry>
                </mxCell>
                <mxCell id="wd_HzJ2n6WR0b6MLlq9--187" style="edgeStyle=orthogonalEdgeStyle;rounded=0;orthogonalLoop=1;jettySize=auto;html=1;exitX=1;exitY=0.5;exitDx=0;exitDy=0;strokeWidth=3;fontSize=15;endArrow=none;endFill=0;fillColor=#f8cecc;strokeColor=#b85450;movable=0;resizable=0;rotatable=0;deletable=0;editable=0;connectable=0;" parent="1" source="wd_HzJ2n6WR0b6MLlq9--167" edge="1">
                    <mxGeometry relative="1" as="geometry">
                        <mxPoint x="1120" y="100" as="targetPoint"/>
                    </mxGeometry>
                </mxCell>
                <mxCell id="wd_HzJ2n6WR0b6MLlq9--167" value="" style="rounded=0;whiteSpace=wrap;html=1;strokeWidth=2;fontSize=15;container=0;movable=0;resizable=0;rotatable=0;deletable=0;editable=0;connectable=0;" parent="1" vertex="1">
                    <mxGeometry x="990" y="90" width="20" height="20" as="geometry"/>
                </mxCell>
                <mxCell id="wd_HzJ2n6WR0b6MLlq9--168" value="" style="group;fillColor=#f8cecc;strokeColor=#b85450;movable=0;resizable=0;rotatable=0;deletable=0;editable=0;connectable=0;fontSize=15;container=0;" parent="1" vertex="1" connectable="0">
                    <mxGeometry x="1200" y="420" width="160" height="160" as="geometry"/>
                </mxCell>
                <mxCell id="wd_HzJ2n6WR0b6MLlq9--48" value="" style="endArrow=none;html=1;rounded=0;fillColor=#f8cecc;strokeColor=#b85450;strokeWidth=3;movable=0;resizable=0;rotatable=0;deletable=0;editable=0;connectable=0;" parent="1" edge="1">
                    <mxGeometry width="50" height="50" relative="1" as="geometry">
                        <mxPoint x="1010" y="150" as="sourcePoint"/>
                        <mxPoint x="1060" y="100" as="targetPoint"/>
                    </mxGeometry>
                </mxCell>
                <mxCell id="wd_HzJ2n6WR0b6MLlq9--49" value="" style="endArrow=none;html=1;rounded=0;fillColor=#dae8fc;strokeColor=#6c8ebf;strokeWidth=3;movable=0;resizable=0;rotatable=0;deletable=0;editable=0;connectable=0;" parent="1" edge="1">
                    <mxGeometry width="50" height="50" relative="1" as="geometry">
                        <mxPoint x="990" y="150" as="sourcePoint"/>
                        <mxPoint x="960" y="120" as="targetPoint"/>
                    </mxGeometry>
                </mxCell>
                <mxCell id="wd_HzJ2n6WR0b6MLlq9--163" value="k2" style="edgeLabel;html=1;align=center;verticalAlign=middle;resizable=0;points=[];fontSize=15;container=0;movable=0;rotatable=0;deletable=0;editable=0;connectable=0;" parent="wd_HzJ2n6WR0b6MLlq9--49" vertex="1" connectable="0">
                    <mxGeometry x="0.0963" relative="1" as="geometry">
                        <mxPoint x="-13" y="7" as="offset"/>
                    </mxGeometry>
                </mxCell>
                <mxCell id="wd_HzJ2n6WR0b6MLlq9--50" value="" style="verticalLabelPosition=bottom;shadow=0;dashed=0;align=center;html=1;verticalAlign=top;shape=mxgraph.electrical.abstract.multiplier;strokeWidth=2;container=0;movable=0;resizable=0;rotatable=0;deletable=0;editable=0;connectable=0;" parent="1" vertex="1">
                    <mxGeometry x="980" y="140" width="40" height="40" as="geometry"/>
                </mxCell>
                <mxCell id="wd_HzJ2n6WR0b6MLlq9--186" style="edgeStyle=orthogonalEdgeStyle;rounded=0;orthogonalLoop=1;jettySize=auto;html=1;exitX=1;exitY=0.5;exitDx=0;exitDy=0;entryX=0;entryY=0.5;entryDx=0;entryDy=0;strokeWidth=3;fontSize=15;endArrow=none;endFill=0;fillColor=#f8cecc;strokeColor=#b85450;movable=0;resizable=0;rotatable=0;deletable=0;editable=0;connectable=0;" parent="1" source="wd_HzJ2n6WR0b6MLlq9--165" target="wd_HzJ2n6WR0b6MLlq9--167" edge="1">
                    <mxGeometry relative="1" as="geometry"/>
                </mxCell>
                <mxCell id="wd_HzJ2n6WR0b6MLlq9--165" value="" style="rounded=0;whiteSpace=wrap;html=1;strokeWidth=2;fontSize=15;container=0;movable=0;resizable=0;rotatable=0;deletable=0;editable=0;connectable=0;" parent="1" vertex="1">
                    <mxGeometry x="870" y="90" width="20" height="20" as="geometry"/>
                </mxCell>
                <mxCell id="wd_HzJ2n6WR0b6MLlq9--265" value="" style="endArrow=none;html=1;rounded=0;strokeWidth=3;fontSize=20;fillColor=#dae8fc;strokeColor=#6c8ebf;movable=0;resizable=0;rotatable=0;deletable=0;editable=0;connectable=0;" parent="1" edge="1">
                    <mxGeometry width="50" height="50" relative="1" as="geometry">
                        <mxPoint x="719" y="320" as="sourcePoint"/>
                        <mxPoint x="1100" y="320" as="targetPoint"/>
                    </mxGeometry>
                </mxCell>
                <mxCell id="wd_HzJ2n6WR0b6MLlq9--272" value="" style="endArrow=none;html=1;rounded=0;fillColor=#f8cecc;strokeColor=#b85450;strokeWidth=3;movable=0;resizable=0;rotatable=0;deletable=0;editable=0;connectable=0;" parent="1" edge="1">
                    <mxGeometry width="50" height="50" relative="1" as="geometry">
                        <mxPoint x="770" y="350" as="sourcePoint"/>
                        <mxPoint x="820" y="300" as="targetPoint"/>
                    </mxGeometry>
                </mxCell>
                <mxCell id="wd_HzJ2n6WR0b6MLlq9--273" value="" style="endArrow=none;html=1;rounded=0;fillColor=#dae8fc;strokeColor=#6c8ebf;strokeWidth=3;movable=0;resizable=0;rotatable=0;deletable=0;editable=0;connectable=0;" parent="1" edge="1">
                    <mxGeometry width="50" height="50" relative="1" as="geometry">
                        <mxPoint x="750" y="350" as="sourcePoint"/>
                        <mxPoint x="720" y="320" as="targetPoint"/>
                    </mxGeometry>
                </mxCell>
                <mxCell id="wd_HzJ2n6WR0b6MLlq9--274" value="k3" style="edgeLabel;html=1;align=center;verticalAlign=middle;resizable=0;points=[];fontSize=15;container=0;movable=0;rotatable=0;deletable=0;editable=0;connectable=0;" parent="wd_HzJ2n6WR0b6MLlq9--273" vertex="1" connectable="0">
                    <mxGeometry x="0.0593" y="1" relative="1" as="geometry">
                        <mxPoint x="-13" y="5" as="offset"/>
                    </mxGeometry>
                </mxCell>
                <mxCell id="wd_HzJ2n6WR0b6MLlq9--275" value="" style="verticalLabelPosition=bottom;shadow=0;dashed=0;align=center;html=1;verticalAlign=top;shape=mxgraph.electrical.abstract.multiplier;strokeWidth=2;container=0;movable=0;resizable=0;rotatable=0;deletable=0;editable=0;connectable=0;" parent="1" vertex="1">
                    <mxGeometry x="740" y="340" width="40" height="40" as="geometry"/>
                </mxCell>
                <mxCell id="wd_HzJ2n6WR0b6MLlq9--276" value="" style="edgeStyle=orthogonalEdgeStyle;rounded=0;orthogonalLoop=1;jettySize=auto;html=1;strokeWidth=2;movable=0;resizable=0;rotatable=0;deletable=0;editable=0;connectable=0;" parent="1" source="wd_HzJ2n6WR0b6MLlq9--275" edge="1">
                    <mxGeometry relative="1" as="geometry">
                        <mxPoint x="440" y="390" as="targetPoint"/>
                        <Array as="points">
                            <mxPoint x="760" y="390"/>
                        </Array>
                    </mxGeometry>
                </mxCell>
                <mxCell id="wd_HzJ2n6WR0b6MLlq9--277" style="edgeStyle=orthogonalEdgeStyle;rounded=0;orthogonalLoop=1;jettySize=auto;html=1;exitX=1;exitY=0.5;exitDx=0;exitDy=0;strokeWidth=3;fontSize=15;endArrow=none;endFill=0;fillColor=#f8cecc;strokeColor=#b85450;movable=0;resizable=0;rotatable=0;deletable=0;editable=0;connectable=0;" parent="1" source="wd_HzJ2n6WR0b6MLlq9--279" edge="1">
                    <mxGeometry relative="1" as="geometry">
                        <mxPoint x="870" y="300.3103448275863" as="targetPoint"/>
                    </mxGeometry>
                </mxCell>
                <mxCell id="wd_HzJ2n6WR0b6MLlq9--278" style="edgeStyle=orthogonalEdgeStyle;rounded=0;orthogonalLoop=1;jettySize=auto;html=1;exitX=0;exitY=0.5;exitDx=0;exitDy=0;entryX=1;entryY=0.5;entryDx=0;entryDy=0;strokeWidth=3;fontSize=15;endArrow=none;endFill=0;fillColor=#d5e8d4;strokeColor=#82b366;movable=0;resizable=0;rotatable=0;deletable=0;editable=0;connectable=0;" parent="1" source="wd_HzJ2n6WR0b6MLlq9--279" target="wd_HzJ2n6WR0b6MLlq9--289" edge="1">
                    <mxGeometry relative="1" as="geometry"/>
                </mxCell>
                <mxCell id="wd_HzJ2n6WR0b6MLlq9--279" value="" style="rounded=0;whiteSpace=wrap;html=1;strokeWidth=2;fontSize=15;container=0;movable=0;resizable=0;rotatable=0;deletable=0;editable=0;connectable=0;" parent="1" vertex="1">
                    <mxGeometry x="750" y="290" width="20" height="20" as="geometry"/>
                </mxCell>
                <mxCell id="wd_HzJ2n6WR0b6MLlq9--280" style="edgeStyle=orthogonalEdgeStyle;rounded=0;orthogonalLoop=1;jettySize=auto;html=1;exitX=1;exitY=0.5;exitDx=0;exitDy=0;strokeWidth=3;fontSize=15;endArrow=none;endFill=0;fillColor=#f8cecc;strokeColor=#b85450;movable=0;resizable=0;rotatable=0;deletable=0;editable=0;connectable=0;" parent="1" source="wd_HzJ2n6WR0b6MLlq9--281" edge="1">
                    <mxGeometry relative="1" as="geometry">
                        <mxPoint x="1120" y="300" as="targetPoint"/>
                    </mxGeometry>
                </mxCell>
                <mxCell id="wd_HzJ2n6WR0b6MLlq9--281" value="" style="rounded=0;whiteSpace=wrap;html=1;strokeWidth=2;fontSize=15;container=0;movable=0;resizable=0;rotatable=0;deletable=0;editable=0;connectable=0;" parent="1" vertex="1">
                    <mxGeometry x="990" y="290" width="20" height="20" as="geometry"/>
                </mxCell>
                <mxCell id="wd_HzJ2n6WR0b6MLlq9--282" value="" style="endArrow=none;html=1;rounded=0;fillColor=#f8cecc;strokeColor=#b85450;strokeWidth=3;movable=0;resizable=0;rotatable=0;deletable=0;editable=0;connectable=0;" parent="1" edge="1">
                    <mxGeometry width="50" height="50" relative="1" as="geometry">
                        <mxPoint x="1010" y="350" as="sourcePoint"/>
                        <mxPoint x="1060" y="300" as="targetPoint"/>
                    </mxGeometry>
                </mxCell>
                <mxCell id="wd_HzJ2n6WR0b6MLlq9--283" value="" style="endArrow=none;html=1;rounded=0;fillColor=#dae8fc;strokeColor=#6c8ebf;strokeWidth=3;movable=0;resizable=0;rotatable=0;deletable=0;editable=0;connectable=0;" parent="1" edge="1">
                    <mxGeometry width="50" height="50" relative="1" as="geometry">
                        <mxPoint x="990" y="350" as="sourcePoint"/>
                        <mxPoint x="960" y="320" as="targetPoint"/>
                    </mxGeometry>
                </mxCell>
                <mxCell id="wd_HzJ2n6WR0b6MLlq9--284" value="k5" style="edgeLabel;html=1;align=center;verticalAlign=middle;resizable=0;points=[];fontSize=15;container=0;movable=0;rotatable=0;deletable=0;editable=0;connectable=0;" parent="wd_HzJ2n6WR0b6MLlq9--283" vertex="1" connectable="0">
                    <mxGeometry x="0.0963" relative="1" as="geometry">
                        <mxPoint x="-13" y="7" as="offset"/>
                    </mxGeometry>
                </mxCell>
                <mxCell id="wd_HzJ2n6WR0b6MLlq9--285" value="" style="verticalLabelPosition=bottom;shadow=0;dashed=0;align=center;html=1;verticalAlign=top;shape=mxgraph.electrical.abstract.multiplier;strokeWidth=2;container=0;movable=0;resizable=0;rotatable=0;deletable=0;editable=0;connectable=0;" parent="1" vertex="1">
                    <mxGeometry x="980" y="340" width="40" height="40" as="geometry"/>
                </mxCell>
                <mxCell id="wd_HzJ2n6WR0b6MLlq9--286" value="" style="edgeStyle=orthogonalEdgeStyle;rounded=0;orthogonalLoop=1;jettySize=auto;html=1;strokeWidth=2;movable=0;resizable=0;rotatable=0;deletable=0;editable=0;connectable=0;" parent="1" source="wd_HzJ2n6WR0b6MLlq9--285" edge="1">
                    <mxGeometry relative="1" as="geometry">
                        <mxPoint x="440" y="410" as="targetPoint"/>
                        <Array as="points">
                            <mxPoint x="1000" y="410"/>
                            <mxPoint x="690" y="410"/>
                        </Array>
                    </mxGeometry>
                </mxCell>
                <mxCell id="wd_HzJ2n6WR0b6MLlq9--287" style="edgeStyle=orthogonalEdgeStyle;rounded=0;orthogonalLoop=1;jettySize=auto;html=1;exitX=1;exitY=0.5;exitDx=0;exitDy=0;entryX=0;entryY=0.5;entryDx=0;entryDy=0;strokeWidth=3;fontSize=15;endArrow=none;endFill=0;fillColor=#f8cecc;strokeColor=#b85450;movable=0;resizable=0;rotatable=0;deletable=0;editable=0;connectable=0;" parent="1" source="wd_HzJ2n6WR0b6MLlq9--288" target="wd_HzJ2n6WR0b6MLlq9--281" edge="1">
                    <mxGeometry relative="1" as="geometry"/>
                </mxCell>
                <mxCell id="wd_HzJ2n6WR0b6MLlq9--288" value="" style="rounded=0;whiteSpace=wrap;html=1;strokeWidth=2;fontSize=15;container=0;movable=0;resizable=0;rotatable=0;deletable=0;editable=0;connectable=0;" parent="1" vertex="1">
                    <mxGeometry x="870" y="290" width="20" height="20" as="geometry"/>
                </mxCell>
                <mxCell id="wd_HzJ2n6WR0b6MLlq9--289" value="FIFO" style="rounded=0;whiteSpace=wrap;html=1;strokeWidth=2;fontSize=15;fillColor=#d5e8d4;strokeColor=#82b366;container=0;movable=0;resizable=0;rotatable=0;deletable=0;editable=0;connectable=0;locked=1;" parent="1" vertex="1">
                    <mxGeometry x="560" y="280" width="120" height="40" as="geometry"/>
                </mxCell>
                <mxCell id="wd_HzJ2n6WR0b6MLlq9--290" value="" style="endArrow=none;html=1;rounded=0;strokeWidth=3;fontSize=20;fillColor=#dae8fc;strokeColor=#6c8ebf;movable=0;resizable=0;rotatable=0;deletable=0;editable=0;connectable=0;" parent="1" edge="1">
                    <mxGeometry width="50" height="50" relative="1" as="geometry">
                        <mxPoint x="719" y="520" as="sourcePoint"/>
                        <mxPoint x="1100" y="520" as="targetPoint"/>
                    </mxGeometry>
                </mxCell>
                <mxCell id="wd_HzJ2n6WR0b6MLlq9--291" value="" style="endArrow=none;html=1;rounded=0;fillColor=#f8cecc;strokeColor=#b85450;strokeWidth=3;movable=0;resizable=0;rotatable=0;deletable=0;editable=0;connectable=0;" parent="1" edge="1">
                    <mxGeometry width="50" height="50" relative="1" as="geometry">
                        <mxPoint x="890" y="550" as="sourcePoint"/>
                        <mxPoint x="940" y="500" as="targetPoint"/>
                    </mxGeometry>
                </mxCell>
                <mxCell id="wd_HzJ2n6WR0b6MLlq9--292" value="" style="endArrow=none;html=1;rounded=0;fillColor=#dae8fc;strokeColor=#6c8ebf;strokeWidth=3;movable=0;resizable=0;rotatable=0;deletable=0;editable=0;connectable=0;" parent="1" edge="1">
                    <mxGeometry width="50" height="50" relative="1" as="geometry">
                        <mxPoint x="870" y="550" as="sourcePoint"/>
                        <mxPoint x="840" y="520" as="targetPoint"/>
                    </mxGeometry>
                </mxCell>
                <mxCell id="wd_HzJ2n6WR0b6MLlq9--293" value="k7" style="edgeLabel;html=1;align=center;verticalAlign=middle;resizable=0;points=[];fontSize=15;container=0;movable=0;rotatable=0;deletable=0;editable=0;connectable=0;" parent="wd_HzJ2n6WR0b6MLlq9--292" vertex="1" connectable="0">
                    <mxGeometry x="0.013" relative="1" as="geometry">
                        <mxPoint x="-15" y="5" as="offset"/>
                    </mxGeometry>
                </mxCell>
                <mxCell id="wd_HzJ2n6WR0b6MLlq9--294" value="" style="verticalLabelPosition=bottom;shadow=0;dashed=0;align=center;html=1;verticalAlign=top;shape=mxgraph.electrical.abstract.multiplier;strokeWidth=2;container=0;movable=0;resizable=0;rotatable=0;deletable=0;editable=0;connectable=0;" parent="1" vertex="1">
                    <mxGeometry x="860" y="540" width="40" height="40" as="geometry"/>
                </mxCell>
                <mxCell id="wd_HzJ2n6WR0b6MLlq9--296" value="" style="endArrow=none;html=1;rounded=0;fillColor=#f8cecc;strokeColor=#b85450;strokeWidth=3;movable=0;resizable=0;rotatable=0;deletable=0;editable=0;connectable=0;" parent="1" edge="1">
                    <mxGeometry width="50" height="50" relative="1" as="geometry">
                        <mxPoint x="770" y="550" as="sourcePoint"/>
                        <mxPoint x="820" y="500" as="targetPoint"/>
                    </mxGeometry>
                </mxCell>
                <mxCell id="wd_HzJ2n6WR0b6MLlq9--297" value="" style="endArrow=none;html=1;rounded=0;fillColor=#dae8fc;strokeColor=#6c8ebf;strokeWidth=3;movable=0;resizable=0;rotatable=0;deletable=0;editable=0;connectable=0;" parent="1" edge="1">
                    <mxGeometry width="50" height="50" relative="1" as="geometry">
                        <mxPoint x="750" y="550" as="sourcePoint"/>
                        <mxPoint x="720" y="520" as="targetPoint"/>
                    </mxGeometry>
                </mxCell>
                <mxCell id="wd_HzJ2n6WR0b6MLlq9--298" value="k6" style="edgeLabel;html=1;align=center;verticalAlign=middle;resizable=0;points=[];fontSize=15;container=0;movable=0;rotatable=0;deletable=0;editable=0;connectable=0;" parent="wd_HzJ2n6WR0b6MLlq9--297" vertex="1" connectable="0">
                    <mxGeometry x="0.0593" y="1" relative="1" as="geometry">
                        <mxPoint x="-13" y="5" as="offset"/>
                    </mxGeometry>
                </mxCell>
                <mxCell id="wd_HzJ2n6WR0b6MLlq9--299" value="" style="verticalLabelPosition=bottom;shadow=0;dashed=0;align=center;html=1;verticalAlign=top;shape=mxgraph.electrical.abstract.multiplier;strokeWidth=2;container=0;movable=0;resizable=0;rotatable=0;deletable=0;editable=0;connectable=0;" parent="1" vertex="1">
                    <mxGeometry x="740" y="540" width="40" height="40" as="geometry"/>
                </mxCell>
                <mxCell id="wd_HzJ2n6WR0b6MLlq9--301" style="edgeStyle=orthogonalEdgeStyle;rounded=0;orthogonalLoop=1;jettySize=auto;html=1;exitX=1;exitY=0.5;exitDx=0;exitDy=0;strokeWidth=3;fontSize=15;endArrow=none;endFill=0;fillColor=#f8cecc;strokeColor=#b85450;movable=0;resizable=0;rotatable=0;deletable=0;editable=0;connectable=0;" parent="1" source="wd_HzJ2n6WR0b6MLlq9--303" edge="1">
                    <mxGeometry relative="1" as="geometry">
                        <mxPoint x="870" y="500.3103448275863" as="targetPoint"/>
                    </mxGeometry>
                </mxCell>
                <mxCell id="wd_HzJ2n6WR0b6MLlq9--302" style="edgeStyle=orthogonalEdgeStyle;rounded=0;orthogonalLoop=1;jettySize=auto;html=1;exitX=0;exitY=0.5;exitDx=0;exitDy=0;entryX=1;entryY=0.5;entryDx=0;entryDy=0;strokeWidth=3;fontSize=15;endArrow=none;endFill=0;fillColor=#d5e8d4;strokeColor=#82b366;movable=0;resizable=0;rotatable=0;deletable=0;editable=0;connectable=0;" parent="1" source="wd_HzJ2n6WR0b6MLlq9--303" target="wd_HzJ2n6WR0b6MLlq9--313" edge="1">
                    <mxGeometry relative="1" as="geometry"/>
                </mxCell>
                <mxCell id="wd_HzJ2n6WR0b6MLlq9--303" value="" style="rounded=0;whiteSpace=wrap;html=1;strokeWidth=2;fontSize=15;container=0;movable=0;resizable=0;rotatable=0;deletable=0;editable=0;connectable=0;" parent="1" vertex="1">
                    <mxGeometry x="750" y="490" width="20" height="20" as="geometry"/>
                </mxCell>
                <mxCell id="wd_HzJ2n6WR0b6MLlq9--304" style="edgeStyle=orthogonalEdgeStyle;rounded=0;orthogonalLoop=1;jettySize=auto;html=1;exitX=1;exitY=0.5;exitDx=0;exitDy=0;strokeWidth=3;fontSize=15;endArrow=none;endFill=0;fillColor=#f8cecc;strokeColor=#b85450;entryX=0;entryY=0;entryDx=0;entryDy=0;movable=0;resizable=0;rotatable=0;deletable=0;editable=0;connectable=0;" parent="1" source="wd_HzJ2n6WR0b6MLlq9--305" target="wd_HzJ2n6WR0b6MLlq9--175" edge="1">
                    <mxGeometry relative="1" as="geometry">
                        <mxPoint x="1140" y="500" as="targetPoint"/>
                        <Array as="points">
                            <mxPoint x="1200" y="500"/>
                            <mxPoint x="1200" y="500"/>
                        </Array>
                    </mxGeometry>
                </mxCell>
                <mxCell id="wd_HzJ2n6WR0b6MLlq9--305" value="" style="rounded=0;whiteSpace=wrap;html=1;strokeWidth=2;fontSize=15;container=0;movable=0;resizable=0;rotatable=0;deletable=0;editable=0;connectable=0;" parent="1" vertex="1">
                    <mxGeometry x="990" y="490" width="20" height="20" as="geometry"/>
                </mxCell>
                <mxCell id="wd_HzJ2n6WR0b6MLlq9--306" value="" style="endArrow=none;html=1;rounded=0;fillColor=#f8cecc;strokeColor=#b85450;strokeWidth=3;movable=0;resizable=0;rotatable=0;deletable=0;editable=0;connectable=0;" parent="1" edge="1">
                    <mxGeometry width="50" height="50" relative="1" as="geometry">
                        <mxPoint x="1010" y="550" as="sourcePoint"/>
                        <mxPoint x="1060" y="500" as="targetPoint"/>
                    </mxGeometry>
                </mxCell>
                <mxCell id="wd_HzJ2n6WR0b6MLlq9--307" value="" style="endArrow=none;html=1;rounded=0;fillColor=#dae8fc;strokeColor=#6c8ebf;strokeWidth=3;movable=0;resizable=0;rotatable=0;deletable=0;editable=0;connectable=0;" parent="1" edge="1">
                    <mxGeometry width="50" height="50" relative="1" as="geometry">
                        <mxPoint x="990" y="550" as="sourcePoint"/>
                        <mxPoint x="960" y="520" as="targetPoint"/>
                    </mxGeometry>
                </mxCell>
                <mxCell id="wd_HzJ2n6WR0b6MLlq9--308" value="k8" style="edgeLabel;html=1;align=center;verticalAlign=middle;resizable=0;points=[];fontSize=15;container=0;movable=0;rotatable=0;deletable=0;editable=0;connectable=0;" parent="wd_HzJ2n6WR0b6MLlq9--307" vertex="1" connectable="0">
                    <mxGeometry x="0.0963" relative="1" as="geometry">
                        <mxPoint x="-13" y="7" as="offset"/>
                    </mxGeometry>
                </mxCell>
                <mxCell id="wd_HzJ2n6WR0b6MLlq9--309" value="" style="verticalLabelPosition=bottom;shadow=0;dashed=0;align=center;html=1;verticalAlign=top;shape=mxgraph.electrical.abstract.multiplier;strokeWidth=2;container=0;movable=0;resizable=0;rotatable=0;deletable=0;editable=0;connectable=0;" parent="1" vertex="1">
                    <mxGeometry x="980" y="540" width="40" height="40" as="geometry"/>
                </mxCell>
                <mxCell id="wd_HzJ2n6WR0b6MLlq9--311" style="edgeStyle=orthogonalEdgeStyle;rounded=0;orthogonalLoop=1;jettySize=auto;html=1;exitX=1;exitY=0.5;exitDx=0;exitDy=0;entryX=0;entryY=0.5;entryDx=0;entryDy=0;strokeWidth=3;fontSize=15;endArrow=none;endFill=0;fillColor=#f8cecc;strokeColor=#b85450;movable=0;resizable=0;rotatable=0;deletable=0;editable=0;connectable=0;" parent="1" source="wd_HzJ2n6WR0b6MLlq9--312" target="wd_HzJ2n6WR0b6MLlq9--305" edge="1">
                    <mxGeometry relative="1" as="geometry"/>
                </mxCell>
                <mxCell id="wd_HzJ2n6WR0b6MLlq9--312" value="" style="rounded=0;whiteSpace=wrap;html=1;strokeWidth=2;fontSize=15;container=0;movable=0;resizable=0;rotatable=0;deletable=0;editable=0;connectable=0;" parent="1" vertex="1">
                    <mxGeometry x="870" y="490" width="20" height="20" as="geometry"/>
                </mxCell>
                <mxCell id="wd_HzJ2n6WR0b6MLlq9--314" style="edgeStyle=orthogonalEdgeStyle;rounded=0;orthogonalLoop=1;jettySize=auto;html=1;exitX=0;exitY=0.5;exitDx=0;exitDy=0;strokeWidth=3;fontSize=15;endArrow=none;endFill=0;fillColor=#f8cecc;strokeColor=#b85450;movable=0;resizable=0;rotatable=0;deletable=0;editable=0;connectable=0;" parent="1" source="wd_HzJ2n6WR0b6MLlq9--313" edge="1">
                    <mxGeometry relative="1" as="geometry">
                        <mxPoint x="1120" y="300" as="targetPoint"/>
                        <Array as="points">
                            <mxPoint x="540" y="500"/>
                            <mxPoint x="540" y="460"/>
                            <mxPoint x="1120" y="460"/>
                        </Array>
                    </mxGeometry>
                </mxCell>
                <mxCell id="wd_HzJ2n6WR0b6MLlq9--313" value="FIFO" style="rounded=0;whiteSpace=wrap;html=1;strokeWidth=2;fontSize=15;fillColor=#d5e8d4;strokeColor=#82b366;container=0;movable=0;resizable=0;rotatable=0;deletable=0;editable=0;connectable=0;locked=1;" parent="1" vertex="1">
                    <mxGeometry x="560" y="480" width="120" height="40" as="geometry"/>
                </mxCell>
                <mxCell id="wd_HzJ2n6WR0b6MLlq9--316" style="edgeStyle=orthogonalEdgeStyle;rounded=0;orthogonalLoop=1;jettySize=auto;html=1;exitX=0;exitY=0.5;exitDx=0;exitDy=0;strokeWidth=3;fontSize=15;endArrow=none;endFill=0;fillColor=#f8cecc;strokeColor=#b85450;movable=0;resizable=0;rotatable=0;deletable=0;editable=0;connectable=0;" parent="1" source="wd_HzJ2n6WR0b6MLlq9--289" edge="1">
                    <mxGeometry relative="1" as="geometry">
                        <mxPoint x="1119.9399999999996" y="100" as="targetPoint"/>
                        <mxPoint x="479.94" y="300" as="sourcePoint"/>
                        <Array as="points">
                            <mxPoint x="540" y="300"/>
                            <mxPoint x="540" y="250"/>
                            <mxPoint x="1120" y="250"/>
                        </Array>
                    </mxGeometry>
                </mxCell>
                <mxCell id="wd_HzJ2n6WR0b6MLlq9--317" value="" style="endArrow=none;html=1;rounded=0;strokeWidth=3;fontSize=15;fillColor=#dae8fc;strokeColor=#6c8ebf;movable=0;resizable=0;rotatable=0;deletable=0;editable=0;connectable=0;" parent="1" edge="1">
                    <mxGeometry width="50" height="50" relative="1" as="geometry">
                        <mxPoint x="1100" y="520" as="sourcePoint"/>
                        <mxPoint x="1100" y="40" as="targetPoint"/>
                        <Array as="points"/>
                    </mxGeometry>
                </mxCell>
                <mxCell id="wd_HzJ2n6WR0b6MLlq9--332" value="" style="edgeStyle=orthogonalEdgeStyle;rounded=0;orthogonalLoop=1;jettySize=auto;html=1;strokeWidth=3;fontSize=25;endArrow=classic;endFill=1;exitX=0.145;exitY=0.854;exitDx=0;exitDy=0;exitPerimeter=0;movable=0;resizable=0;rotatable=0;deletable=0;editable=0;connectable=0;" parent="1" source="wd_HzJ2n6WR0b6MLlq9--319" edge="1">
                    <mxGeometry relative="1" as="geometry">
                        <mxPoint x="240" y="400" as="targetPoint"/>
                        <Array as="points"/>
                    </mxGeometry>
                </mxCell>
                <mxCell id="wd_HzJ2n6WR0b6MLlq9--319" value="" style="verticalLabelPosition=bottom;shadow=0;dashed=0;align=center;html=1;verticalAlign=top;shape=mxgraph.electrical.abstract.multiplier;strokeWidth=2;rotation=45;container=0;movable=0;resizable=0;rotatable=0;deletable=0;editable=0;connectable=0;" parent="1" vertex="1">
                    <mxGeometry x="340" y="350" width="100" height="100" as="geometry"/>
                </mxCell>
                <mxCell id="wd_HzJ2n6WR0b6MLlq9--320" value="&lt;font style=&quot;font-size: 25px;&quot;&gt;N*M&lt;/font&gt;" style="text;html=1;align=center;verticalAlign=middle;resizable=0;points=[];autosize=1;strokeColor=none;fillColor=none;fontSize=15;container=0;movable=0;rotatable=0;deletable=0;editable=0;connectable=0;locked=1;" parent="1" vertex="1">
                    <mxGeometry x="1247" y="367.28" width="67" height="42" as="geometry"/>
                </mxCell>
                <mxCell id="wd_HzJ2n6WR0b6MLlq9--321" value="&lt;font style=&quot;font-size: 25px;&quot;&gt;K*K&lt;/font&gt;" style="text;html=1;align=center;verticalAlign=middle;resizable=0;points=[];autosize=1;strokeColor=none;fillColor=none;fontSize=15;container=0;movable=0;rotatable=0;deletable=0;editable=0;connectable=0;" parent="1" vertex="1">
                    <mxGeometry x="1060" y="-130" width="70" height="40" as="geometry"/>
                </mxCell>
                <mxCell id="wd_HzJ2n6WR0b6MLlq9--322" value="&lt;font style=&quot;font-size: 25px;&quot;&gt;N-K&lt;/font&gt;" style="text;html=1;align=center;verticalAlign=middle;resizable=0;points=[];autosize=1;strokeColor=none;fillColor=none;fontSize=15;container=0;movable=0;rotatable=0;deletable=0;editable=0;connectable=0;" parent="1" vertex="1">
                    <mxGeometry x="585" y="320" width="70" height="40" as="geometry"/>
                </mxCell>
                <mxCell id="wd_HzJ2n6WR0b6MLlq9--323" value="&lt;font style=&quot;font-size: 25px;&quot;&gt;N-K&lt;/font&gt;" style="text;html=1;align=center;verticalAlign=middle;resizable=0;points=[];autosize=1;strokeColor=none;fillColor=none;fontSize=15;container=0;movable=0;rotatable=0;deletable=0;editable=0;connectable=0;" parent="1" vertex="1">
                    <mxGeometry x="585" y="520" width="70" height="40" as="geometry"/>
                </mxCell>
                <mxCell id="wd_HzJ2n6WR0b6MLlq9--1" value="k0" style="rounded=0;whiteSpace=wrap;html=1;fillColor=#dae8fc;strokeColor=#6c8ebf;movable=0;resizable=0;rotatable=0;deletable=0;editable=0;connectable=0;fontSize=15;container=0;" parent="1" vertex="1">
                    <mxGeometry x="1040" y="-80" width="40" height="40" as="geometry"/>
                </mxCell>
                <mxCell id="wd_HzJ2n6WR0b6MLlq9--2" value="k1" style="rounded=0;whiteSpace=wrap;html=1;fillColor=#dae8fc;strokeColor=#6c8ebf;movable=0;resizable=0;rotatable=0;deletable=0;editable=0;connectable=0;fontSize=15;container=0;" parent="1" vertex="1">
                    <mxGeometry x="1080" y="-80" width="40" height="40" as="geometry"/>
                </mxCell>
                <mxCell id="wd_HzJ2n6WR0b6MLlq9--3" value="k2" style="rounded=0;whiteSpace=wrap;html=1;fillColor=#dae8fc;strokeColor=#6c8ebf;movable=0;resizable=0;rotatable=0;deletable=0;editable=0;connectable=0;fontSize=15;container=0;" parent="1" vertex="1">
                    <mxGeometry x="1120" y="-80" width="40" height="40" as="geometry"/>
                </mxCell>
                <mxCell id="wd_HzJ2n6WR0b6MLlq9--5" value="k3" style="rounded=0;whiteSpace=wrap;html=1;fillColor=#dae8fc;strokeColor=#6c8ebf;movable=0;resizable=0;rotatable=0;deletable=0;editable=0;connectable=0;fontSize=15;container=0;" parent="1" vertex="1">
                    <mxGeometry x="1040" y="-40" width="40" height="40" as="geometry"/>
                </mxCell>
                <mxCell id="wd_HzJ2n6WR0b6MLlq9--6" value="k4" style="rounded=0;whiteSpace=wrap;html=1;fillColor=#dae8fc;strokeColor=#6c8ebf;movable=0;resizable=0;rotatable=0;deletable=0;editable=0;connectable=0;fontSize=15;container=0;" parent="1" vertex="1">
                    <mxGeometry x="1080" y="-40" width="40" height="40" as="geometry"/>
                </mxCell>
                <mxCell id="wd_HzJ2n6WR0b6MLlq9--7" value="k5" style="rounded=0;whiteSpace=wrap;html=1;fillColor=#dae8fc;strokeColor=#6c8ebf;movable=0;resizable=0;rotatable=0;deletable=0;editable=0;connectable=0;fontSize=15;container=0;" parent="1" vertex="1">
                    <mxGeometry x="1120" y="-40" width="40" height="40" as="geometry"/>
                </mxCell>
                <mxCell id="wd_HzJ2n6WR0b6MLlq9--8" value="k6" style="rounded=0;whiteSpace=wrap;html=1;fillColor=#dae8fc;strokeColor=#6c8ebf;movable=0;resizable=0;rotatable=0;deletable=0;editable=0;connectable=0;fontSize=15;container=0;" parent="1" vertex="1">
                    <mxGeometry x="1040" width="40" height="40" as="geometry"/>
                </mxCell>
                <mxCell id="wd_HzJ2n6WR0b6MLlq9--9" value="k7" style="rounded=0;whiteSpace=wrap;html=1;fillColor=#dae8fc;strokeColor=#6c8ebf;movable=0;resizable=0;rotatable=0;deletable=0;editable=0;connectable=0;fontSize=15;container=0;" parent="1" vertex="1">
                    <mxGeometry x="1080" width="40" height="40" as="geometry"/>
                </mxCell>
                <mxCell id="wd_HzJ2n6WR0b6MLlq9--10" value="k8" style="rounded=0;whiteSpace=wrap;html=1;fillColor=#dae8fc;strokeColor=#6c8ebf;movable=0;resizable=0;rotatable=0;deletable=0;editable=0;connectable=0;fontSize=15;container=0;" parent="1" vertex="1">
                    <mxGeometry x="1120" width="40" height="40" as="geometry"/>
                </mxCell>
                <mxCell id="wd_HzJ2n6WR0b6MLlq9--42" value="" style="endArrow=none;html=1;rounded=0;fillColor=#f8cecc;strokeColor=#b85450;strokeWidth=3;movable=0;resizable=0;rotatable=0;deletable=0;editable=0;connectable=0;" parent="1" edge="1">
                    <mxGeometry width="50" height="50" relative="1" as="geometry">
                        <mxPoint x="890" y="150" as="sourcePoint"/>
                        <mxPoint x="940" y="100" as="targetPoint"/>
                    </mxGeometry>
                </mxCell>
                <mxCell id="wd_HzJ2n6WR0b6MLlq9--43" value="" style="endArrow=none;html=1;rounded=0;fillColor=#dae8fc;strokeColor=#6c8ebf;strokeWidth=3;movable=0;resizable=0;rotatable=0;deletable=0;editable=0;connectable=0;" parent="1" edge="1">
                    <mxGeometry width="50" height="50" relative="1" as="geometry">
                        <mxPoint x="870" y="150" as="sourcePoint"/>
                        <mxPoint x="840" y="120" as="targetPoint"/>
                    </mxGeometry>
                </mxCell>
                <mxCell id="wd_HzJ2n6WR0b6MLlq9--162" value="k1" style="edgeLabel;html=1;align=center;verticalAlign=middle;resizable=0;points=[];fontSize=15;container=0;movable=0;rotatable=0;deletable=0;editable=0;connectable=0;" parent="wd_HzJ2n6WR0b6MLlq9--43" vertex="1" connectable="0">
                    <mxGeometry x="0.013" relative="1" as="geometry">
                        <mxPoint x="-15" y="5" as="offset"/>
                    </mxGeometry>
                </mxCell>
                <mxCell id="wd_HzJ2n6WR0b6MLlq9--44" value="" style="verticalLabelPosition=bottom;shadow=0;dashed=0;align=center;html=1;verticalAlign=top;shape=mxgraph.electrical.abstract.multiplier;strokeWidth=2;container=0;movable=0;resizable=0;rotatable=0;deletable=0;editable=0;connectable=0;" parent="1" vertex="1">
                    <mxGeometry x="860" y="140" width="40" height="40" as="geometry"/>
                </mxCell>
                <mxCell id="wd_HzJ2n6WR0b6MLlq9--169" value="i0" style="rounded=0;whiteSpace=wrap;html=1;fillColor=#f8cecc;strokeColor=#b85450;movable=0;resizable=0;rotatable=0;deletable=0;editable=0;connectable=0;fontSize=15;container=0;" parent="1" vertex="1">
                    <mxGeometry x="1200" y="420" width="40" height="40" as="geometry"/>
                </mxCell>
                <mxCell id="wd_HzJ2n6WR0b6MLlq9--170" value="i1" style="rounded=0;whiteSpace=wrap;html=1;fillColor=#f8cecc;strokeColor=#b85450;movable=0;resizable=0;rotatable=0;deletable=0;editable=0;connectable=0;fontSize=15;container=0;" parent="1" vertex="1">
                    <mxGeometry x="1240" y="420" width="40" height="40" as="geometry"/>
                </mxCell>
                <mxCell id="wd_HzJ2n6WR0b6MLlq9--171" value="i2" style="rounded=0;whiteSpace=wrap;html=1;fillColor=#f8cecc;strokeColor=#b85450;movable=0;resizable=0;rotatable=0;deletable=0;editable=0;connectable=0;fontSize=15;container=0;" parent="1" vertex="1">
                    <mxGeometry x="1280" y="420" width="40" height="40" as="geometry"/>
                </mxCell>
                <mxCell id="wd_HzJ2n6WR0b6MLlq9--172" value="i4" style="rounded=0;whiteSpace=wrap;html=1;fillColor=#f8cecc;strokeColor=#b85450;movable=0;resizable=0;rotatable=0;deletable=0;editable=0;connectable=0;fontSize=15;container=0;" parent="1" vertex="1">
                    <mxGeometry x="1200" y="460" width="40" height="40" as="geometry"/>
                </mxCell>
                <mxCell id="wd_HzJ2n6WR0b6MLlq9--173" value="i5" style="rounded=0;whiteSpace=wrap;html=1;fillColor=#f8cecc;strokeColor=#b85450;movable=0;resizable=0;rotatable=0;deletable=0;editable=0;connectable=0;fontSize=15;container=0;" parent="1" vertex="1">
                    <mxGeometry x="1240" y="460" width="40" height="40" as="geometry"/>
                </mxCell>
                <mxCell id="wd_HzJ2n6WR0b6MLlq9--174" value="i6" style="rounded=0;whiteSpace=wrap;html=1;fillColor=#f8cecc;strokeColor=#b85450;movable=0;resizable=0;rotatable=0;deletable=0;editable=0;connectable=0;fontSize=15;container=0;" parent="1" vertex="1">
                    <mxGeometry x="1280" y="460" width="40" height="40" as="geometry"/>
                </mxCell>
                <mxCell id="wd_HzJ2n6WR0b6MLlq9--175" value="i8" style="rounded=0;whiteSpace=wrap;html=1;fillColor=#f8cecc;strokeColor=#b85450;movable=0;resizable=0;rotatable=0;deletable=0;editable=0;connectable=0;fontSize=15;container=0;" parent="1" vertex="1">
                    <mxGeometry x="1200" y="500" width="40" height="40" as="geometry"/>
                </mxCell>
                <mxCell id="wd_HzJ2n6WR0b6MLlq9--176" value="i9" style="rounded=0;whiteSpace=wrap;html=1;fillColor=#f8cecc;strokeColor=#b85450;movable=0;resizable=0;rotatable=0;deletable=0;editable=0;connectable=0;fontSize=15;container=0;" parent="1" vertex="1">
                    <mxGeometry x="1240" y="500" width="40" height="40" as="geometry"/>
                </mxCell>
                <mxCell id="wd_HzJ2n6WR0b6MLlq9--177" value="i10" style="rounded=0;whiteSpace=wrap;html=1;fillColor=#f8cecc;strokeColor=#b85450;movable=0;resizable=0;rotatable=0;deletable=0;editable=0;connectable=0;fontSize=15;container=0;" parent="1" vertex="1">
                    <mxGeometry x="1280" y="500" width="40" height="40" as="geometry"/>
                </mxCell>
                <mxCell id="wd_HzJ2n6WR0b6MLlq9--178" value="i3" style="rounded=0;whiteSpace=wrap;html=1;fillColor=#f8cecc;strokeColor=#b85450;movable=0;resizable=0;rotatable=0;deletable=0;editable=0;connectable=0;fontSize=15;container=0;" parent="1" vertex="1">
                    <mxGeometry x="1320" y="420" width="40" height="40" as="geometry"/>
                </mxCell>
                <mxCell id="wd_HzJ2n6WR0b6MLlq9--179" value="i7" style="rounded=0;whiteSpace=wrap;html=1;fillColor=#f8cecc;strokeColor=#b85450;movable=0;resizable=0;rotatable=0;deletable=0;editable=0;connectable=0;fontSize=15;container=0;" parent="1" vertex="1">
                    <mxGeometry x="1320" y="460" width="40" height="40" as="geometry"/>
                </mxCell>
                <mxCell id="wd_HzJ2n6WR0b6MLlq9--180" value="i11" style="rounded=0;whiteSpace=wrap;html=1;fillColor=#f8cecc;strokeColor=#b85450;movable=0;resizable=0;rotatable=0;deletable=0;editable=0;connectable=0;fontSize=15;container=0;" parent="1" vertex="1">
                    <mxGeometry x="1320" y="500" width="40" height="40" as="geometry"/>
                </mxCell>
                <mxCell id="wd_HzJ2n6WR0b6MLlq9--181" value="i12" style="rounded=0;whiteSpace=wrap;html=1;fillColor=#f8cecc;strokeColor=#b85450;movable=0;resizable=0;rotatable=0;deletable=0;editable=0;connectable=0;fontSize=15;container=0;" parent="1" vertex="1">
                    <mxGeometry x="1200" y="540" width="40" height="40" as="geometry"/>
                </mxCell>
                <mxCell id="wd_HzJ2n6WR0b6MLlq9--182" value="i13" style="rounded=0;whiteSpace=wrap;html=1;fillColor=#f8cecc;strokeColor=#b85450;movable=0;resizable=0;rotatable=0;deletable=0;editable=0;connectable=0;fontSize=15;container=0;" parent="1" vertex="1">
                    <mxGeometry x="1240" y="540" width="40" height="40" as="geometry"/>
                </mxCell>
                <mxCell id="wd_HzJ2n6WR0b6MLlq9--183" value="i14" style="rounded=0;whiteSpace=wrap;html=1;fillColor=#f8cecc;strokeColor=#b85450;movable=0;resizable=0;rotatable=0;deletable=0;editable=0;connectable=0;fontSize=15;container=0;" parent="1" vertex="1">
                    <mxGeometry x="1280" y="540" width="40" height="40" as="geometry"/>
                </mxCell>
                <mxCell id="wd_HzJ2n6WR0b6MLlq9--184" value="i15" style="rounded=0;whiteSpace=wrap;html=1;fillColor=#f8cecc;strokeColor=#b85450;movable=0;resizable=0;rotatable=0;deletable=0;editable=0;connectable=0;fontSize=15;container=0;" parent="1" vertex="1">
                    <mxGeometry x="1320" y="540" width="40" height="40" as="geometry"/>
                </mxCell>
                <mxCell id="wd_HzJ2n6WR0b6MLlq9--267" value="" style="endArrow=none;html=1;rounded=0;fillColor=#f8cecc;strokeColor=#b85450;strokeWidth=3;movable=0;resizable=0;rotatable=0;deletable=0;editable=0;connectable=0;" parent="1" edge="1">
                    <mxGeometry width="50" height="50" relative="1" as="geometry">
                        <mxPoint x="890" y="350" as="sourcePoint"/>
                        <mxPoint x="940" y="300" as="targetPoint"/>
                    </mxGeometry>
                </mxCell>
                <mxCell id="wd_HzJ2n6WR0b6MLlq9--268" value="" style="endArrow=none;html=1;rounded=0;fillColor=#dae8fc;strokeColor=#6c8ebf;strokeWidth=3;movable=0;resizable=0;rotatable=0;deletable=0;editable=0;connectable=0;" parent="1" edge="1">
                    <mxGeometry width="50" height="50" relative="1" as="geometry">
                        <mxPoint x="870" y="350" as="sourcePoint"/>
                        <mxPoint x="840" y="320" as="targetPoint"/>
                    </mxGeometry>
                </mxCell>
                <mxCell id="wd_HzJ2n6WR0b6MLlq9--269" value="k4" style="edgeLabel;html=1;align=center;verticalAlign=middle;resizable=0;points=[];fontSize=15;container=0;movable=0;rotatable=0;deletable=0;editable=0;connectable=0;" parent="wd_HzJ2n6WR0b6MLlq9--268" vertex="1" connectable="0">
                    <mxGeometry x="0.013" relative="1" as="geometry">
                        <mxPoint x="-15" y="5" as="offset"/>
                    </mxGeometry>
                </mxCell>
                <mxCell id="wd_HzJ2n6WR0b6MLlq9--270" value="" style="verticalLabelPosition=bottom;shadow=0;dashed=0;align=center;html=1;verticalAlign=top;shape=mxgraph.electrical.abstract.multiplier;strokeWidth=2;container=0;movable=0;resizable=0;rotatable=0;deletable=0;editable=0;connectable=0;" parent="1" vertex="1">
                    <mxGeometry x="860" y="340" width="40" height="40" as="geometry"/>
                </mxCell>
                <mxCell id="wd_HzJ2n6WR0b6MLlq9--271" value="" style="edgeStyle=orthogonalEdgeStyle;rounded=0;orthogonalLoop=1;jettySize=auto;html=1;strokeWidth=2;movable=0;resizable=0;rotatable=0;deletable=0;editable=0;connectable=0;" parent="1" source="wd_HzJ2n6WR0b6MLlq9--270" edge="1">
                    <mxGeometry relative="1" as="geometry">
                        <mxPoint x="440" y="400" as="targetPoint"/>
                        <Array as="points">
                            <mxPoint x="880" y="400"/>
                            <mxPoint x="790" y="400"/>
                        </Array>
                    </mxGeometry>
                </mxCell>
                <mxCell id="wd_HzJ2n6WR0b6MLlq9--324" value="" style="edgeStyle=orthogonalEdgeStyle;rounded=0;orthogonalLoop=1;jettySize=auto;html=1;strokeWidth=2;movable=0;resizable=0;rotatable=0;deletable=0;editable=0;connectable=0;" parent="1" edge="1">
                    <mxGeometry relative="1" as="geometry">
                        <mxPoint x="440" y="360" as="targetPoint"/>
                        <mxPoint x="760.037037037037" y="180" as="sourcePoint"/>
                        <Array as="points">
                            <mxPoint x="760" y="190"/>
                            <mxPoint x="460" y="190"/>
                            <mxPoint x="460" y="360"/>
                        </Array>
                    </mxGeometry>
                </mxCell>
                <mxCell id="wd_HzJ2n6WR0b6MLlq9--325" value="" style="edgeStyle=orthogonalEdgeStyle;rounded=0;orthogonalLoop=1;jettySize=auto;html=1;strokeWidth=2;movable=0;resizable=0;rotatable=0;deletable=0;editable=0;connectable=0;" parent="1" edge="1">
                    <mxGeometry relative="1" as="geometry">
                        <mxPoint x="440" y="380" as="targetPoint"/>
                        <mxPoint x="1000.037037037037" y="180" as="sourcePoint"/>
                        <Array as="points">
                            <mxPoint x="1000" y="210"/>
                            <mxPoint x="480" y="210"/>
                            <mxPoint x="480" y="380"/>
                        </Array>
                    </mxGeometry>
                </mxCell>
                <mxCell id="wd_HzJ2n6WR0b6MLlq9--326" value="" style="edgeStyle=orthogonalEdgeStyle;rounded=0;orthogonalLoop=1;jettySize=auto;html=1;strokeWidth=2;movable=0;resizable=0;rotatable=0;deletable=0;editable=0;connectable=0;" parent="1" edge="1">
                    <mxGeometry relative="1" as="geometry">
                        <mxPoint x="440" y="370" as="targetPoint"/>
                        <mxPoint x="880.037037037037" y="180" as="sourcePoint"/>
                        <Array as="points">
                            <mxPoint x="880" y="200"/>
                            <mxPoint x="470" y="200"/>
                            <mxPoint x="470" y="370"/>
                        </Array>
                    </mxGeometry>
                </mxCell>
                <mxCell id="wd_HzJ2n6WR0b6MLlq9--327" value="" style="edgeStyle=orthogonalEdgeStyle;rounded=0;orthogonalLoop=1;jettySize=auto;html=1;strokeWidth=2;movable=0;resizable=0;rotatable=0;deletable=0;editable=0;connectable=0;" parent="1" edge="1">
                    <mxGeometry relative="1" as="geometry">
                        <mxPoint x="440" y="420" as="targetPoint"/>
                        <mxPoint x="760.037037037037" y="580" as="sourcePoint"/>
                        <Array as="points">
                            <mxPoint x="760" y="590"/>
                            <mxPoint x="480" y="590"/>
                            <mxPoint x="480" y="420"/>
                        </Array>
                    </mxGeometry>
                </mxCell>
                <mxCell id="wd_HzJ2n6WR0b6MLlq9--328" value="" style="edgeStyle=orthogonalEdgeStyle;rounded=0;orthogonalLoop=1;jettySize=auto;html=1;strokeWidth=2;movable=0;resizable=0;rotatable=0;deletable=0;editable=0;connectable=0;" parent="1" edge="1">
                    <mxGeometry relative="1" as="geometry">
                        <mxPoint x="440" y="440" as="targetPoint"/>
                        <mxPoint x="1000.037037037037" y="580" as="sourcePoint"/>
                        <Array as="points">
                            <mxPoint x="1000" y="610"/>
                            <mxPoint x="460" y="610"/>
                            <mxPoint x="460" y="440"/>
                        </Array>
                    </mxGeometry>
                </mxCell>
                <mxCell id="wd_HzJ2n6WR0b6MLlq9--329" value="" style="edgeStyle=orthogonalEdgeStyle;rounded=0;orthogonalLoop=1;jettySize=auto;html=1;strokeWidth=2;movable=0;resizable=0;rotatable=0;deletable=0;editable=0;connectable=0;" parent="1" edge="1">
                    <mxGeometry relative="1" as="geometry">
                        <mxPoint x="440" y="430" as="targetPoint"/>
                        <mxPoint x="880.037037037037" y="580" as="sourcePoint"/>
                        <Array as="points">
                            <mxPoint x="880" y="600"/>
                            <mxPoint x="470" y="600"/>
                            <mxPoint x="470" y="430"/>
                        </Array>
                    </mxGeometry>
                </mxCell>
                <object label="image moving" id="wd_HzJ2n6WR0b6MLlq9--372">
                    <mxCell parent="0" visible="0"/>
                </object>
                <mxCell id="wd_HzJ2n6WR0b6MLlq9--374" value="i0" style="rounded=0;whiteSpace=wrap;html=1;fillColor=#f8cecc;strokeColor=#b85450;movable=1;resizable=1;rotatable=1;deletable=1;editable=1;connectable=1;fontSize=8;container=0;" parent="wd_HzJ2n6WR0b6MLlq9--372" vertex="1">
                    <mxGeometry x="810" y="60" width="20" height="20" as="geometry"/>
                </mxCell>
                <mxCell id="wd_HzJ2n6WR0b6MLlq9--375" value="i1" style="rounded=0;whiteSpace=wrap;html=1;fillColor=#f8cecc;strokeColor=#b85450;movable=1;resizable=1;rotatable=1;deletable=1;editable=1;connectable=1;fontSize=8;container=0;" parent="wd_HzJ2n6WR0b6MLlq9--372" vertex="1">
                    <mxGeometry x="930" y="60" width="20" height="20" as="geometry"/>
                </mxCell>
                <mxCell id="wd_HzJ2n6WR0b6MLlq9--376" value="i2" style="rounded=0;whiteSpace=wrap;html=1;fillColor=#f8cecc;strokeColor=#b85450;movable=1;resizable=1;rotatable=1;deletable=1;editable=1;connectable=1;fontSize=8;container=0;" parent="wd_HzJ2n6WR0b6MLlq9--372" vertex="1">
                    <mxGeometry x="1050" y="60" width="20" height="20" as="geometry"/>
                </mxCell>
                <mxCell id="wd_HzJ2n6WR0b6MLlq9--377" value="i4" style="rounded=0;whiteSpace=wrap;html=1;fillColor=#f8cecc;strokeColor=#b85450;movable=1;resizable=1;rotatable=1;deletable=1;editable=1;connectable=1;fontSize=8;container=0;" parent="wd_HzJ2n6WR0b6MLlq9--372" vertex="1">
                    <mxGeometry x="810" y="260" width="20" height="20" as="geometry"/>
                </mxCell>
                <mxCell id="wd_HzJ2n6WR0b6MLlq9--378" value="i5" style="rounded=0;whiteSpace=wrap;html=1;fillColor=#f8cecc;strokeColor=#b85450;movable=1;resizable=1;rotatable=1;deletable=1;editable=1;connectable=1;fontSize=8;container=0;" parent="wd_HzJ2n6WR0b6MLlq9--372" vertex="1">
                    <mxGeometry x="930" y="260" width="20" height="20" as="geometry"/>
                </mxCell>
                <mxCell id="wd_HzJ2n6WR0b6MLlq9--379" value="i6" style="rounded=0;whiteSpace=wrap;html=1;fillColor=#f8cecc;strokeColor=#b85450;movable=1;resizable=1;rotatable=1;deletable=1;editable=1;connectable=1;fontSize=8;container=0;" parent="wd_HzJ2n6WR0b6MLlq9--372" vertex="1">
                    <mxGeometry x="1050" y="260" width="20" height="20" as="geometry"/>
                </mxCell>
                <mxCell id="wd_HzJ2n6WR0b6MLlq9--380" value="i8" style="rounded=0;whiteSpace=wrap;html=1;fillColor=#f8cecc;strokeColor=#b85450;movable=1;resizable=1;rotatable=1;deletable=1;editable=1;connectable=1;fontSize=8;container=0;" parent="wd_HzJ2n6WR0b6MLlq9--372" vertex="1">
                    <mxGeometry x="810" y="470" width="20" height="20" as="geometry"/>
                </mxCell>
                <mxCell id="wd_HzJ2n6WR0b6MLlq9--381" value="i9" style="rounded=0;whiteSpace=wrap;html=1;fillColor=#f8cecc;strokeColor=#b85450;movable=1;resizable=1;rotatable=1;deletable=1;editable=1;connectable=1;fontSize=8;container=0;" parent="wd_HzJ2n6WR0b6MLlq9--372" vertex="1">
                    <mxGeometry x="930" y="470" width="20" height="20" as="geometry"/>
                </mxCell>
                <mxCell id="wd_HzJ2n6WR0b6MLlq9--382" value="i10" style="rounded=0;whiteSpace=wrap;html=1;fillColor=#f8cecc;strokeColor=#b85450;movable=1;resizable=1;rotatable=1;deletable=1;editable=1;connectable=1;fontSize=8;container=0;" parent="wd_HzJ2n6WR0b6MLlq9--372" vertex="1">
                    <mxGeometry x="1050" y="470" width="20" height="20" as="geometry"/>
                </mxCell>
                <mxCell id="wd_HzJ2n6WR0b6MLlq9--383" value="i3" style="rounded=0;whiteSpace=wrap;html=1;fillColor=#f8cecc;strokeColor=#b85450;movable=1;resizable=1;rotatable=1;deletable=1;editable=1;connectable=1;fontSize=8;container=0;" parent="wd_HzJ2n6WR0b6MLlq9--372" vertex="1">
                    <mxGeometry x="710" y="260" width="20" height="20" as="geometry"/>
                </mxCell>
                <mxCell id="wd_HzJ2n6WR0b6MLlq9--384" value="i7" style="rounded=0;whiteSpace=wrap;html=1;fillColor=#f8cecc;strokeColor=#b85450;movable=1;resizable=1;rotatable=1;deletable=1;editable=1;connectable=1;fontSize=8;container=0;" parent="wd_HzJ2n6WR0b6MLlq9--372" vertex="1">
                    <mxGeometry x="710" y="470" width="20" height="20" as="geometry"/>
                </mxCell>
                <mxCell id="wd_HzJ2n6WR0b6MLlq9--385" value="i11" style="rounded=0;whiteSpace=wrap;html=1;fillColor=#f8cecc;strokeColor=#b85450;movable=1;resizable=1;rotatable=1;deletable=1;editable=1;connectable=1;fontSize=8;container=0;" parent="wd_HzJ2n6WR0b6MLlq9--372" vertex="1">
                    <mxGeometry x="1120" y="470" width="20" height="20" as="geometry"/>
                </mxCell>
                <mxCell id="wd_HzJ2n6WR0b6MLlq9--386" value="i12" style="rounded=0;whiteSpace=wrap;html=1;fillColor=#f8cecc;strokeColor=#b85450;movable=1;resizable=1;rotatable=1;deletable=1;editable=1;connectable=1;fontSize=8;container=0;" parent="wd_HzJ2n6WR0b6MLlq9--372" vertex="1">
                    <mxGeometry x="1140" y="470" width="20" height="20" as="geometry"/>
                </mxCell>
                <mxCell id="wd_HzJ2n6WR0b6MLlq9--387" value="i13" style="rounded=0;whiteSpace=wrap;html=1;fillColor=#f8cecc;strokeColor=#b85450;movable=1;resizable=1;rotatable=1;deletable=1;editable=1;connectable=1;fontSize=8;container=0;" parent="wd_HzJ2n6WR0b6MLlq9--372" vertex="1">
                    <mxGeometry x="1160" y="470" width="20" height="20" as="geometry"/>
                </mxCell>
                <mxCell id="wd_HzJ2n6WR0b6MLlq9--388" value="i14" style="rounded=0;whiteSpace=wrap;html=1;fillColor=#f8cecc;strokeColor=#b85450;movable=1;resizable=1;rotatable=1;deletable=1;editable=1;connectable=1;fontSize=8;container=0;" parent="wd_HzJ2n6WR0b6MLlq9--372" vertex="1">
                    <mxGeometry x="1180" y="470" width="20" height="20" as="geometry"/>
                </mxCell>
                <mxCell id="wd_HzJ2n6WR0b6MLlq9--389" value="i15" style="rounded=0;whiteSpace=wrap;html=1;fillColor=#f8cecc;strokeColor=#b85450;movable=1;resizable=1;rotatable=1;deletable=1;editable=1;connectable=1;fontSize=8;container=0;" parent="wd_HzJ2n6WR0b6MLlq9--372" vertex="1">
                    <mxGeometry x="1200" y="470" width="20" height="20" as="geometry"/>
                </mxCell>
                <mxCell id="wd_HzJ2n6WR0b6MLlq9--393" value="" style="group" parent="wd_HzJ2n6WR0b6MLlq9--372" vertex="1" connectable="0">
                    <mxGeometry x="1040" y="-80" width="120" height="120" as="geometry"/>
                </mxCell>
                <mxCell id="wd_HzJ2n6WR0b6MLlq9--394" value="k0" style="rounded=0;whiteSpace=wrap;html=1;fillColor=#dae8fc;strokeColor=#6c8ebf;movable=1;resizable=1;rotatable=1;deletable=1;editable=1;connectable=1;fontSize=15;container=0;opacity=50;" parent="wd_HzJ2n6WR0b6MLlq9--393" vertex="1">
                    <mxGeometry width="40" height="40" as="geometry"/>
                </mxCell>
                <mxCell id="wd_HzJ2n6WR0b6MLlq9--395" value="k1" style="rounded=0;whiteSpace=wrap;html=1;fillColor=#dae8fc;strokeColor=#6c8ebf;movable=1;resizable=1;rotatable=1;deletable=1;editable=1;connectable=1;fontSize=15;container=0;opacity=50;" parent="wd_HzJ2n6WR0b6MLlq9--393" vertex="1">
                    <mxGeometry x="40" width="40" height="40" as="geometry"/>
                </mxCell>
                <mxCell id="wd_HzJ2n6WR0b6MLlq9--396" value="k2" style="rounded=0;whiteSpace=wrap;html=1;fillColor=#dae8fc;strokeColor=#6c8ebf;movable=1;resizable=1;rotatable=1;deletable=1;editable=1;connectable=1;fontSize=15;container=0;opacity=50;" parent="wd_HzJ2n6WR0b6MLlq9--393" vertex="1">
                    <mxGeometry x="80" width="40" height="40" as="geometry"/>
                </mxCell>
                <mxCell id="wd_HzJ2n6WR0b6MLlq9--397" value="k3" style="rounded=0;whiteSpace=wrap;html=1;fillColor=#dae8fc;strokeColor=#6c8ebf;movable=1;resizable=1;rotatable=1;deletable=1;editable=1;connectable=1;fontSize=15;container=0;opacity=50;" parent="wd_HzJ2n6WR0b6MLlq9--393" vertex="1">
                    <mxGeometry y="40" width="40" height="40" as="geometry"/>
                </mxCell>
                <mxCell id="wd_HzJ2n6WR0b6MLlq9--398" value="k4" style="rounded=0;whiteSpace=wrap;html=1;fillColor=#dae8fc;strokeColor=#6c8ebf;movable=1;resizable=1;rotatable=1;deletable=1;editable=1;connectable=1;fontSize=15;container=0;opacity=50;" parent="wd_HzJ2n6WR0b6MLlq9--393" vertex="1">
                    <mxGeometry x="40" y="40" width="40" height="40" as="geometry"/>
                </mxCell>
                <mxCell id="wd_HzJ2n6WR0b6MLlq9--399" value="k5" style="rounded=0;whiteSpace=wrap;html=1;fillColor=#dae8fc;strokeColor=#6c8ebf;movable=1;resizable=1;rotatable=1;deletable=1;editable=1;connectable=1;fontSize=15;container=0;opacity=50;" parent="wd_HzJ2n6WR0b6MLlq9--393" vertex="1">
                    <mxGeometry x="80" y="40" width="40" height="40" as="geometry"/>
                </mxCell>
                <mxCell id="wd_HzJ2n6WR0b6MLlq9--400" value="k6" style="rounded=0;whiteSpace=wrap;html=1;fillColor=#dae8fc;strokeColor=#6c8ebf;movable=1;resizable=1;rotatable=1;deletable=1;editable=1;connectable=1;fontSize=15;container=0;opacity=50;" parent="wd_HzJ2n6WR0b6MLlq9--393" vertex="1">
                    <mxGeometry y="80" width="40" height="40" as="geometry"/>
                </mxCell>
                <mxCell id="wd_HzJ2n6WR0b6MLlq9--401" value="k7" style="rounded=0;whiteSpace=wrap;html=1;fillColor=#dae8fc;strokeColor=#6c8ebf;movable=1;resizable=1;rotatable=1;deletable=1;editable=1;connectable=1;fontSize=15;container=0;opacity=50;" parent="wd_HzJ2n6WR0b6MLlq9--393" vertex="1">
                    <mxGeometry x="40" y="80" width="40" height="40" as="geometry"/>
                </mxCell>
                <mxCell id="wd_HzJ2n6WR0b6MLlq9--402" value="k8" style="rounded=0;whiteSpace=wrap;html=1;fillColor=#dae8fc;strokeColor=#6c8ebf;movable=1;resizable=1;rotatable=1;deletable=1;editable=1;connectable=1;fontSize=15;container=0;opacity=50;" parent="wd_HzJ2n6WR0b6MLlq9--393" vertex="1">
                    <mxGeometry x="80" y="80" width="40" height="40" as="geometry"/>
                </mxCell>
            </root>
        </mxGraphModel>
    </diagram>
    <diagram id="D6KzSzfDBJmvtkeJuyIM" name="RGB to Gray">
        <mxGraphModel dx="252" dy="176" grid="1" gridSize="10" guides="1" tooltips="1" connect="1" arrows="1" fold="1" page="0" pageScale="1" pageWidth="850" pageHeight="1100" math="0" shadow="0">
            <root>
                <mxCell id="0"/>
                <mxCell id="1" parent="0"/>
                <mxCell id="n2ENzqeZ_bkcIiw_EmKV-1" value="RGB to Gray" style="rounded=0;whiteSpace=wrap;html=1;fontSize=20;fillColor=#fff2cc;strokeColor=#d6b656;" vertex="1" parent="1">
                    <mxGeometry x="320" y="360" width="280" height="160" as="geometry"/>
                </mxCell>
                <mxCell id="eUOfenL_lSn2JtitMyo0-4" value="" style="endArrow=none;html=1;fontSize=20;" edge="1" parent="1">
                    <mxGeometry width="50" height="50" relative="1" as="geometry">
                        <mxPoint x="280" y="400" as="sourcePoint"/>
                        <mxPoint x="320" y="400" as="targetPoint"/>
                    </mxGeometry>
                </mxCell>
                <mxCell id="eUOfenL_lSn2JtitMyo0-5" value="r" style="edgeLabel;html=1;align=center;verticalAlign=middle;resizable=0;points=[];fontSize=20;" vertex="1" connectable="0" parent="eUOfenL_lSn2JtitMyo0-4">
                    <mxGeometry x="-0.73" relative="1" as="geometry">
                        <mxPoint x="-21" y="-2" as="offset"/>
                    </mxGeometry>
                </mxCell>
                <mxCell id="eUOfenL_lSn2JtitMyo0-6" value="" style="endArrow=none;html=1;fontSize=20;" edge="1" parent="1">
                    <mxGeometry width="50" height="50" relative="1" as="geometry">
                        <mxPoint x="280" y="440" as="sourcePoint"/>
                        <mxPoint x="320" y="440" as="targetPoint"/>
                    </mxGeometry>
                </mxCell>
                <mxCell id="eUOfenL_lSn2JtitMyo0-7" value="g" style="edgeLabel;html=1;align=center;verticalAlign=middle;resizable=0;points=[];fontSize=20;" vertex="1" connectable="0" parent="eUOfenL_lSn2JtitMyo0-6">
                    <mxGeometry x="-0.73" relative="1" as="geometry">
                        <mxPoint x="-21" y="-2" as="offset"/>
                    </mxGeometry>
                </mxCell>
                <mxCell id="eUOfenL_lSn2JtitMyo0-8" value="" style="endArrow=none;html=1;fontSize=20;" edge="1" parent="1">
                    <mxGeometry width="50" height="50" relative="1" as="geometry">
                        <mxPoint x="280" y="480" as="sourcePoint"/>
                        <mxPoint x="320" y="480" as="targetPoint"/>
                    </mxGeometry>
                </mxCell>
                <mxCell id="eUOfenL_lSn2JtitMyo0-9" value="b" style="edgeLabel;html=1;align=center;verticalAlign=middle;resizable=0;points=[];fontSize=20;" vertex="1" connectable="0" parent="eUOfenL_lSn2JtitMyo0-8">
                    <mxGeometry x="-0.73" relative="1" as="geometry">
                        <mxPoint x="-21" y="-2" as="offset"/>
                    </mxGeometry>
                </mxCell>
                <mxCell id="eUOfenL_lSn2JtitMyo0-10" value="" style="endArrow=none;html=1;fontSize=20;" edge="1" parent="1">
                    <mxGeometry width="50" height="50" relative="1" as="geometry">
                        <mxPoint x="295" y="485" as="sourcePoint"/>
                        <mxPoint x="305" y="475" as="targetPoint"/>
                    </mxGeometry>
                </mxCell>
                <mxCell id="eUOfenL_lSn2JtitMyo0-11" value="" style="endArrow=none;html=1;fontSize=20;" edge="1" parent="1">
                    <mxGeometry width="50" height="50" relative="1" as="geometry">
                        <mxPoint x="295" y="445" as="sourcePoint"/>
                        <mxPoint x="305" y="435" as="targetPoint"/>
                    </mxGeometry>
                </mxCell>
                <mxCell id="eUOfenL_lSn2JtitMyo0-12" value="" style="endArrow=none;html=1;fontSize=20;" edge="1" parent="1">
                    <mxGeometry width="50" height="50" relative="1" as="geometry">
                        <mxPoint x="295" y="405" as="sourcePoint"/>
                        <mxPoint x="305" y="395" as="targetPoint"/>
                    </mxGeometry>
                </mxCell>
                <mxCell id="eUOfenL_lSn2JtitMyo0-13" value="8" style="text;html=1;align=center;verticalAlign=middle;resizable=0;points=[];autosize=1;strokeColor=none;fillColor=none;fontSize=14;" vertex="1" parent="1">
                    <mxGeometry x="285" y="480" width="30" height="30" as="geometry"/>
                </mxCell>
                <mxCell id="eUOfenL_lSn2JtitMyo0-14" value="" style="endArrow=none;html=1;fontSize=14;" edge="1" parent="1">
                    <mxGeometry width="50" height="50" relative="1" as="geometry">
                        <mxPoint x="600" y="439.86" as="sourcePoint"/>
                        <mxPoint x="640" y="440" as="targetPoint"/>
                    </mxGeometry>
                </mxCell>
                <mxCell id="eUOfenL_lSn2JtitMyo0-16" value="gray" style="edgeLabel;html=1;align=center;verticalAlign=middle;resizable=0;points=[];fontSize=14;" vertex="1" connectable="0" parent="eUOfenL_lSn2JtitMyo0-14">
                    <mxGeometry x="0.675" relative="1" as="geometry">
                        <mxPoint x="24" y="-2" as="offset"/>
                    </mxGeometry>
                </mxCell>
                <mxCell id="eUOfenL_lSn2JtitMyo0-15" value="" style="endArrow=none;html=1;fontSize=20;" edge="1" parent="1">
                    <mxGeometry width="50" height="50" relative="1" as="geometry">
                        <mxPoint x="620" y="445" as="sourcePoint"/>
                        <mxPoint x="630" y="435" as="targetPoint"/>
                    </mxGeometry>
                </mxCell>
                <mxCell id="eUOfenL_lSn2JtitMyo0-17" value="8" style="text;html=1;align=center;verticalAlign=middle;resizable=0;points=[];autosize=1;strokeColor=none;fillColor=none;fontSize=14;" vertex="1" parent="1">
                    <mxGeometry x="609" y="439" width="30" height="30" as="geometry"/>
                </mxCell>
            </root>
        </mxGraphModel>
    </diagram>
</mxfile>